<svg xmlns="http://www.w3.org/2000/svg" data-name="Layer 1" viewBox="0 0 128 128" id="dog-training"><path fill="#fbbf79" d="M30.88 84.35s4 7.68 12.64 7.82 13.22 4.71 13.22 4.71L65 109.59l9.1-17.28-5.72-18.14-15.84-1.84"></path><path fill="#fbbf79" d="m104.4 77.5-.7.83-8.42-8.27s-7.89-15.6-17.85-22.37-15-6.2-15-6.2-5.08-1-8.65 0c-3.08.82-7-.47-10.43.86a7.44 7.44 0 0 0-1.6.84c-3.75 2.62-7.36 11.4-7.92 12.37s-2.26 4.54-1.69 7.17a53.45 53.45 0 0 1-5.45 3c-1.5.57-5.64 2.44-3.58 7.52s5.08 13.91 12.78 10.34c0 0 11.28 3.08 17.49-1.46s11.84-3.35 12 0-7.74 13.57-7.74 13.57L65 109.15a62.29 62.29 0 0 1 13-.15l-5.36 6.39L75.55 127s23.81-10.91 41.55-41.3Z"></path><path fill="#f0af68" d="M44.84 42.16s-6.21 7.31-6.43 11.07-1.91 9-6.27 9.5c-.57-2.63 1.12-6.2 1.69-7.17s4.17-9.75 7.89-12.38a7.44 7.44 0 0 1 1.6-.84Z"></path><path fill="#f0af68" d="M27.91 67.22S42.64 64.28 45 64.56c0 0 2.37-7.81 4.88-11.86s3.77-7.11 8.38-8.09 9.5-.39 10.88 1.12S84.64 65 84.64 72.38s-1.4 12.83-4.26 16.46-7.6 2.65-10.25 6-2.35 7.86-6.4 4.51l-.12-.1a7.39 7.39 0 0 1-1.38-10c2.72-3.75 4.85-8 1.7-9.39-6.35-2.7-11.12 4.4-15.9 4.54s-9.86.83-13.06-2.22-5.37-5.18-3.92-7.7-1.18-6.7-3.14-7.26Z"></path><path fill="#333736" d="M25.1 66.5s6.1-.68 7.07 1.83.42 5.6-2.09 6.77-4 2.36-5 1.46-5.38-6.04.02-10.06Z"></path><path fill="#fbbf79" d="M71.13 42.31a1.19 1.19 0 0 0-1.69 1.46c1 2.54 2.1 6.48 1.41 10.13-1.13 6-3.57 19.35-2.63 24.43s3.38 7.33 7.33 5.26 4.51-5.26 8.08-6.77 10-7.18 9-14.11-7-6-8-10.06c-.75-3.08-9.12-7.9-13.5-10.34Z"></path><path fill="#f0af68" d="M83.63 76.82c-3.57 1.51-4.13 4.7-8.08 6.77s-6.39-.19-7.33-5.26a25.3 25.3 0 0 1-.11-5.66c0 .28.07.54.11.78.94 5.07 3.38 7.33 7.33 5.26s4.51-5.26 8.08-6.76c2.89-1.22 7.62-5.17 8.83-10.3a10.08 10.08 0 0 1 .19 1.06c.94 6.93-5.45 12.61-9.02 14.11Z"></path><path fill="#333736" d="M49.53 61.25a1 1 0 0 1-.78-.37 1 1 0 0 1 .13-1.42 7 7 0 0 1 6.48-1.18 1 1 0 0 1-.67 1.91 5 5 0 0 0-4.52.83 1 1 0 0 1-.64.23Z"></path><path fill="#996a61" d="m106.14 78.21-8.23-6.28a.42.42 0 0 0-.62.12 171.2 171.2 0 0 1-24.64 31.06c-3.5 3.43-7 5.14-8.73 5a.32.32 0 0 0-.27.5 48.69 48.69 0 0 0 8.7 9.19 1 1 0 0 0 1.17 0c3.2-2.52 18.94-15.57 32.73-39a.42.42 0 0 0-.11-.59Z"></path><path fill="#f3d5ba" d="m38.87 1 6 29.7s8.13-2.76 13.51-2.76 10.19 7.25 16.41 8.11 8.28 5.18 13.12 5.53a4.94 4.94 0 0 1-5.78 4.86l-13-2.27S62 52.8 43.71 46.24c0 0-4.15 4.66-12.95.69S10.9 6 10.9 6"></path><path fill="#f3d5ba" d="m80.39 32.83-1.63.51c-6.05 3.28-15.2 0-15.2 0l12.61 7.77s3.62 0 4.83-2.59a19.08 19.08 0 0 0 1.24-4 1.45 1.45 0 0 0-1.85-1.69Z"></path><path fill="#dbb38e" d="M63.56 33.34a36.15 36.15 0 0 0 3.82.72 27.36 27.36 0 0 0 3.83.32 21.7 21.7 0 0 0 3.79-.3 13 13 0 0 0 3.52-1.18.13.13 0 0 1 .08 0c.6-.18 1.13-.36 1.8-.54a1.89 1.89 0 0 1 2.08.94 1.83 1.83 0 0 1 .22 1.17 8.88 8.88 0 0 1-.21.94 18.55 18.55 0 0 1-.56 1.79 11.14 11.14 0 0 1-.79 1.73 4 4 0 0 1-1.37 1.38 6.54 6.54 0 0 1-3.61.84 6.91 6.91 0 0 0 3.34-1.24 3.61 3.61 0 0 0 1.09-1.28 10.07 10.07 0 0 0 .62-1.67c.16-.57.29-1.16.43-1.75 0-.28.13-.63.16-.85a.93.93 0 0 0-.14-.59 1 1 0 0 0-1-.45l-1.71.54h.09A13.63 13.63 0 0 1 75.16 35a19 19 0 0 1-4 .13 29.86 29.86 0 0 1-3.9-.61 24.51 24.51 0 0 1-3.7-1.18Z"></path><path fill="#b3b3b3" d="M97.33 32.74a1 1 0 0 1-1-.77c-3.22-13.17-15.2-10.39-15.71-10.26A1 1 0 0 1 79.4 21a1 1 0 0 1 .73-1.22 16.33 16.33 0 0 1 11.42 1.67c3.34 2 5.62 5.4 6.76 10.07a1 1 0 0 1-.74 1.22Z"></path><path fill="#b3b3b3" d="M91.05 32.74a1 1 0 0 1-1-.77c-1.81-7.36-8.51-5.83-8.79-5.76a1 1 0 0 1-.49-2 10.1 10.1 0 0 1 7.06 1A9.51 9.51 0 0 1 92 31.49a1 1 0 0 1-.74 1.22Z"></path></svg>