<?xml version="1.0" encoding="utf-8"?><svg xml:space="preserve" viewBox="0 0 100 100" y="0" x="0" xmlns="http://www.w3.org/2000/svg" id="圖層_1" version="1.1" width="200px" height="200px" xmlns:xlink="http://www.w3.org/1999/xlink" style="width:100%;height:100%;background-size:initial;background-repeat-y:initial;background-repeat-x:initial;background-position-y:initial;background-position-x:initial;background-origin:initial;background-image:initial;background-color:rgba(255, 255, 255, 0);background-clip:initial;background-attachment:initial;animation-play-state:paused" ><g class="ldl-scale" style="transform-origin:50% 50%;transform:rotate(0deg) scale(0.8, 0.8);animation-play-state:paused" ><g style="animation-play-state:paused" ><path fill="#f7931e" d="M52.181 15.229a.991.991 0 0 1-.64-.233c-.999-.837-2.229-2.004-2.877-3.609-.708-1.75-.479-3.699.581-4.966 1.141-1.363 3.215-1.816 4.82-1.052 1.095.521 1.887 1.545 2.066 2.672.205 1.283-.414 2.6-1.504 3.202-1.217.672-2.821.313-3.577-.802a.996.996 0 1 1 1.649-1.119c.177.26.654.347.964.177.352-.195.571-.697.5-1.145-.077-.481-.452-.947-.955-1.187-.798-.38-1.868-.146-2.435.532-.675.806-.618 2.057-.261 2.939.377.933 1.09 1.806 2.31 2.828a.998.998 0 0 1-.641 1.763z" style="fill:rgb(247, 147, 30);animation-play-state:paused" ></path></g>
<circle fill="#ffc28a" r="13.454" cy="26.361" cx="50.025" style="fill:rgb(255, 194, 138);animation-play-state:paused" ></circle>
<path fill="#ffc28a" d="M29.188 64.735l-.547-.383a4.561 4.561 0 0 1-1.121-6.353l9.186-13.122a4.561 4.561 0 0 1 6.353-1.121l.547.383a4.561 4.561 0 0 1 1.121 6.353l-9.186 13.122a4.563 4.563 0 0 1-6.353 1.121z" style="fill:rgb(255, 194, 138);animation-play-state:paused" ></path>
<path fill="#ffc28a" d="M70.586 64.58l.773-.541a4.561 4.561 0 0 0 1.121-6.353l-9.022-12.888a4.561 4.561 0 0 0-6.353-1.121l-.773.541a4.561 4.561 0 0 0-1.121 6.353l9.022 12.888a4.563 4.563 0 0 0 6.353 1.121z" style="fill:rgb(255, 194, 138);animation-play-state:paused" ></path>
<path fill="#fbb03b" d="M66.345 49.16l-5.477-7.825c-.018-.028-.038-.054-.057-.081l-.081-.115a5.683 5.683 0 0 0-4.601-2.349H43.923a5.678 5.678 0 0 0-4.601 2.349l-.08.115c-.019.028-.039.054-.057.082l-5.151 7.359 4.199 1.942v20.582H61.82V51.331l4.525-2.171z" style="fill:rgb(251, 176, 59);animation-play-state:paused" ></path>
<path fill="#ffc28a" d="M53.947 93.184l.472.472a4.56 4.56 0 0 0 6.451 0l8.104-8.104a4.56 4.56 0 0 0 0-6.451l-.472-.472a4.56 4.56 0 0 0-6.451 0l-8.104 8.104a4.56 4.56 0 0 0 0 6.451z" style="fill:rgb(255, 194, 138);animation-play-state:paused" ></path>
<path fill="#ffc28a" d="M54.419 71.017l-.472.472a4.56 4.56 0 0 0 0 6.451l8.104 8.104a4.56 4.56 0 0 0 6.451 0l.472-.472a4.56 4.56 0 0 0 0-6.451l-8.104-8.104a4.562 4.562 0 0 0-6.451 0z" style="fill:rgb(255, 194, 138);animation-play-state:paused" ></path>
<path fill="#ffc28a" d="M46.053 93.185l-.472.472a4.56 4.56 0 0 1-6.451 0l-8.104-8.104a4.56 4.56 0 0 1 0-6.451l.472-.472a4.56 4.56 0 0 1 6.451 0l8.104 8.104a4.56 4.56 0 0 1 0 6.451z" style="fill:rgb(255, 194, 138);animation-play-state:paused" ></path>
<path fill="#ffc28a" d="M45.581 71.019l.472.472a4.56 4.56 0 0 1 0 6.451l-8.104 8.104a4.56 4.56 0 0 1-6.451 0l-.472-.472a4.56 4.56 0 0 1 0-6.451l8.104-8.104a4.56 4.56 0 0 1 6.451 0z" style="fill:rgb(255, 194, 138);animation-play-state:paused" ></path>
<path d="M61.82 71.811h-.001z" fill="#ffc28a" style="fill:rgb(255, 194, 138);animation-play-state:paused" ></path>
<path d="M56.929 65.192H38.231v6.619l8.35 5.564h6.889l8.349-5.564v-6.619z" fill="#ccc" style="fill:rgb(204, 204, 204);animation-play-state:paused" ></path>
<metadata xmlns="https://loading.io/stock/" style="animation-play-state:paused" ><name style="animation-play-state:paused" >baby</name>


<tags style="animation-play-state:paused" >infant,child,toddler,newborn,kid,baby,people</tags>


<license style="animation-play-state:paused" >by</license>


<slug style="animation-play-state:paused" >v1i4k8</slug></metadata></g><!-- generated by https://loading.io/ --></svg>